<?xml version="1.0" encoding="utf-8"?>
<!-- Generator: Adobe Illustrator 18.0.0, SVG Export Plug-In . SVG Version: 6.00 Build 0)  -->
<!DOCTYPE svg PUBLIC "-//W3C//DTD SVG 1.1//EN" "http://www.w3.org/Graphics/SVG/1.1/DTD/svg11.dtd">
<svg version="1.1" id="Layer_3" xmlns="http://www.w3.org/2000/svg" xmlns:xlink="http://www.w3.org/1999/xlink" x="0px" y="0px"
	 width="972px" height="847.6px" viewBox="0 0 972 847.6" enable-background="new 0 0 972 847.6" xml:space="preserve">
<path fill="#A0CC41" d="M24.1,159h116.5c7,0,13.9-5.7,15.4-12.8l24.3-117.4c1.5-7.1-3-12.8-10.1-12.8H53.8c-7,0-13.9,5.7-15.4,12.8
	L14.1,146.2C12.6,153.2,17.1,159,24.1,159z"/>
<path fill="#A0CC41" d="M155.1,362h116.5c7,0,13.9-5.7,15.4-12.8l24.3-117.4c1.5-7.1-3-12.8-10.1-12.8H184.8
	c-7,0-13.9,5.7-15.4,12.8l-24.3,117.4C143.6,356.2,148.1,362,155.1,362z"/>
<g>
	<path fill="#A0CC41" d="M946.7,158.3h-71.8c-6.6,0-10.9-5.3-9.5-11.9L890,28.9c1.4-6.6-2.9-11.9-9.5-11.9h-625
		c-6.6,0-13.1,5.3-14.5,11.9l-24.6,117.4c-1.4,6.6,2.9,11.9,9.5,11.9h150c6.6,0,10.9,5.3,9.5,11.9L249.1,820.2
		c-1.4,6.6,2.9,11.9,9.5,11.9h546.8c6.6,0,13.1-5.3,14.5-11.9l136.3-649.9C957.6,163.6,953.3,158.3,946.7,158.3z M679.4,409.9
		c-2.8,21.3-16.5,41.9-35.1,54.4l-5.4,146.6c-0.3,8.7-8,17.1-15.7,17.1H521.9c-7.7,0-11.5-8.3-7.7-17.1l62.2-144
		c-14.9-11.8-21-33.2-13.5-57.1c9.2-29.1,35.4-50.3,61.6-54.4c4.2-0.6,8.4-0.9,12.5-0.6c3.9,0.3,7.7,1,11.2,2
		C669.7,363.3,682.8,384.3,679.4,409.9z"/>
</g>
</svg>
